<?xml version="1.0" encoding="utf-8"?>
<!-- Generator: Adobe Illustrator 16.0.0, SVG Export Plug-In . SVG Version: 6.00 Build 0)  -->
<!DOCTYPE svg PUBLIC "-//W3C//DTD SVG 1.1//EN" "http://www.w3.org/Graphics/SVG/1.1/DTD/svg11.dtd">
<svg version="1.1" id="Layer_1" xmlns="http://www.w3.org/2000/svg" xmlns:xlink="http://www.w3.org/1999/xlink" x="0px" y="0px"
	 width="1345.509px" height="1344.056px" viewBox="0 0 1345.509 1344.056" enable-background="new 0 0 1345.509 1344.056"
	 xml:space="preserve">
<path d="M1086.818,1343.031c-254.158,30.895-282.42-646.842-282.42-682.135l-0.912-3.546l1.81-0.838l90.904-47.695l12.327-6.164
	c0,0,0,7.959,0,8.856c4.429,163.195,92.654,465.888,181.808,445.586c194.135-44.105,165.888-629.188,160.562-706.806
	c0-0.897-0.853-0.897-0.853-1.796l5.281-6.148l63.54-81.224l1.72,8.856l1.811,9.695
	C1366.515,521.444,1375.387,1308.621,1086.818,1343.031z"/>
<path fill="#FF0000" d="M1269.448,44.066c242.669,203.83-440.334,559.484-480.894,579.786h-0.912h-0.883l-99.716-41.472
	l-7.062-3.546l7.959-5.326c110.309-74.087,460.622-333.512,270.018-376.765C713.494,140.236,327.02,392.675,258.214,461.48h-3.53
	l-105.013-6.149l-6.179-0.912c1.751-0.897,2.648-2.633,4.384-4.429C462.942,163.217,1092.07-105.066,1269.448,44.066z"/>
<path fill="#FFCC00" d="M767.369,653.835v4.429l3.53,112.073v2.633l-5.341-0.897c-48.533-14.123-390.902-167.624-468.58-36.146
	c-71.439,120.9,218.865,381.192,385.651,411.175l-42.37-179.1v-3.53l5.326,0.853l153.545,45.033l3.546,1.721l0.823,2.647
	c41.472,202.095,103.307,305.326,95.347,303.59C339.363,1248.597-74.46,751.785,12.853,561.196
	c84.725-186.19,711.249,74.97,751.884,91.786L767.369,653.835z"/>
</svg>
