<svg style="overflow: hidden; position: relative;" xmlns="http://www.w3.org/2000/svg" xmlns:xlink="http://www.w3.org/1999/xlink" width="100%" version="1.1" height="100%"><rect transform="matrix(1.1667,1.0879,-1.547,1.659,193.5824,-155.6909)" x="71" y="40" width="168" height="78" r="0" rx="0" ry="0" fill="#7956d3" stroke="#e3e8ef" stroke-width="14" fill-opacity="0.28" opacity="1" stroke-opacity="1"></rect><path transform="matrix(1,0,0,1,0,0)" fill="#48e" stroke="none" d="M358,65C358,65,439,134,439,136C439,138,286,189,186,146C86,103,601,175,600,99C599,23,381,333,450,313C519,293,358,65,358,65M434,106C434,106,259,302,259,302C259,302,505,171,505,172C505,173,456,223,456,223C456,223,566,151,566,151C566,151,365,116,395,82C425,48,434,106,434,106" transform=""></path><image transform="matrix(1,0,0,1,0,0)" preserveAspectRatio="none" x="52" y="60" width="151" height="102" xlink:href="http://www.wowace.com/thumbman/avatars/6/707/300x300/600px-718smiley.svg.png.-m0.png"></image></svg>