<svg style="overflow: hidden; position: relative;" xmlns="http://www.w3.org/2000/svg" xmlns:xlink="http://www.w3.org/1999/xlink" width="100%" version="1.1" height="100%">
    <rect transform="matrix(1,0,0,1,0,0)" x="29" y="23" width="104" height="14" r="0" rx="0" ry="0" fill="#48e" stroke="none">
    </rect>
    <rect transform="matrix(1,0,0,1,0,0)" x="74" y="33" width="14" height="103" r="0" rx="0" ry="0" fill="#48e" stroke="none">
    </rect>
    <rect transform="matrix(1,0,0,1,0,0)" x="103" y="54" width="16" height="82" r="0" rx="0" ry="0" fill="#48e" stroke="none">
    </rect>
    <rect transform="matrix(1,0,0,1,0,0)" x="118" y="80" width="32" height="16" r="0" rx="0" ry="0" fill="#48e" stroke="none">
    </rect>
    <rect transform="matrix(1,0,0,1,0,0)" x="134" y="95" width="16" height="41" r="0" rx="0" ry="0" fill="#48e" stroke="none">
    </rect>
    <rect transform="matrix(1,0,0,1,0,-2)" x="162" y="83" width="14" height="55" r="0" rx="0" ry="0" fill="#48e" stroke="none">
    </rect>
    <rect transform="matrix(1,0,0,1,0,0)" x="186" y="81" width="34" height="13" r="0" rx="0" ry="0" fill="#48e" stroke="none">
    </rect>
    <rect transform="matrix(1,0,0,1,0,0)" x="186" y="84" width="12" height="29" r="0" rx="0" ry="0" fill="#48e" stroke="none">
    </rect>
    <rect transform="matrix(1,0,0,1,0,-6)" x="186" y="110" width="34" height="12" r="0" rx="0" ry="0" fill="#48e" stroke="none">
    </rect>
    <rect transform="matrix(1,0,0,1,0,0)" x="206" y="108" width="14" height="27" r="0" rx="0" ry="0" fill="#48e" stroke="none">
    </rect>
    <rect transform="matrix(1,0,0,1,1,-1)" x="185" y="124" width="33" height="13" r="0" rx="0" ry="0" fill="#48e" stroke="none">
    </rect>
    <rect transform="matrix(1,0,0,1,157,1)" x="119" y="26" width="15" height="111" r="0" rx="0" ry="0" fill="#48e" stroke="none">
    </rect>
    <rect transform="matrix(1.2083,0,0,1,-59.5833,-4)" x="278" y="31" width="64" height="15" r="0" rx="0" ry="0" fill="#48e" stroke="none" stroke-width="1">
    </rect>
    <rect transform="matrix(0.6775,0.7355,-1.1515,1.0606,157.4093,-241.9531)" x="328" y="31" width="14" height="55" r="0" rx="0" ry="0" fill="#48e" stroke="none" stroke-width="1">
    </rect>
    <rect transform="matrix(0.7071,-0.7071,0.8462,0.8462,-13.8511,233.1972)" x="313" y="84" width="14" height="65" r="0" rx="0" ry="0" fill="#48e" stroke="none" stroke-width="1">
    </rect>
    <circle transform="matrix(1,0,0,1,-12,-4)" cx="359" cy="113" r="31" fill="#48e" stroke="none">
    </circle>
    <circle transform="matrix(1,0,0,1,0,0)" cx="352.5" cy="115.5" r="2.5" fill="#48e" stroke="none">
    </circle>
    <rect transform="matrix(1,0,0,1,0,0)" x="386" y="80" width="49" height="15" r="0" rx="0" ry="0" fill="#48e" stroke="none">
    </rect>
    <rect transform="matrix(1.4167,0,0,1,-157.0833,-2)" x="383" y="82" width="12" height="55" r="0" rx="0" ry="0" fill="#48e" stroke="none" stroke-width="1">
    </rect>
    <rect transform="matrix(1,0,0,1,3,0)" x="384" y="121" width="50" height="15" r="0" rx="0" ry="0" fill="#48e" stroke="none" stroke-width="1">
    </rect>
    <rect transform="matrix(1,0,0,1,0,-3)" x="448" y="82" width="13" height="60" r="0" rx="0" ry="0" fill="#48e" stroke="none">
    </rect>
    <rect transform="matrix(0.951,-0.8333,0.6591,0.7521,-42.06,418.7091)" x="456" y="92" width="34" height="14" r="0" rx="0" ry="0" fill="#48e" stroke="none" stroke-width="1">
    </rect>
    <rect transform="matrix(1.8333,2.1032,-0.7538,0.6571,-294.7325,-930.0198)" x="455" y="108" width="42" height="12" r="0" rx="0" ry="0" fill="#48e" stroke="none" stroke-width="1">
    </rect>
    <rect transform="matrix(1,0,0,1,0,0)" x="502" y="83" width="41" height="13" r="0" rx="0" ry="0" fill="#48e" stroke="none">
    </rect>
    <rect transform="matrix(1,0,0,1,-2,-2)" x="504" y="108" width="39" height="12" r="0" rx="0" ry="0" fill="#48e" stroke="none">
    </rect>
    <rect transform="matrix(1,0,0,1,-1,-5)" x="531" y="111" width="14" height="26" r="0" rx="0" ry="0" fill="#48e" stroke="none" stroke-width="1">
    </rect>
    <rect transform="matrix(1,0,0,1,0,-2)" x="502" y="129" width="42" height="13" r="0" rx="0" ry="0" fill="#48e" stroke="none">
    </rect>
    <circle transform="matrix(1,0,0,1,0,0)" cx="342" cy="113" r="11" fill="#e627ed" stroke="none" fill-opacity="1">
    </circle>
    <ellipse transform="matrix(1,0,0,1,-1,-6)" cx="172" cy="65.5" rx="10" ry="9.5" fill="#e627ed" stroke="none" fill-opacity="1">
    </ellipse>
    <circle transform="matrix(1,0,0,1,-2,-2)" cx="594" cy="174" r="15" fill="#e627ed" stroke="none" fill-opacity="1">
    </circle>
    <rect transform="matrix(1,0,0,1,-11,3)" x="593" y="14" width="19" height="125" r="0" rx="0" ry="0" fill="#2b88e5" stroke="none" fill-opacity="1">
    </rect>
    <image transform="matrix(1,0,0,1,-222,88)" preserveAspectRatio="none" x="228" y="205" width="145" height="134" xlink:href="http://www.wowace.com/thumbman/avatars/6/707/300x300/600px-718smiley.svg.png.-m0.png" fill="#2464ed" stroke="none" fill-opacity="1">
    </image>
    <text transform="matrix(1,0,0,1,113,170)" style="text-anchor: middle; font: normal normal normal 10px/normal Arial; font-size: 18pxpx;" x="0" y="0" text-anchor="middle" font="10px &amp;quot;Arial&amp;quot;" stroke="none" fill="#2464ed" font-size="18pxpx" fill-opacity="1">
        <tspan dy="NaN">
        </tspan>
    </text>
    <rect transform="matrix(1,0,0,1,0,-2)" x="502" y="86" width="13" height="32" r="0" rx="0" ry="0" fill="#5182eb" stroke="none" fill-opacity="1">
    </rect>
</svg>