<?xml version="1.0" encoding="utf-8"?>
<!-- Generator: Adobe Illustrator 15.0.2, SVG Export Plug-In . SVG Version: 6.00 Build 0)  -->
<!DOCTYPE svg PUBLIC "-//W3C//DTD SVG 1.1//EN" "http://www.w3.org/Graphics/SVG/1.1/DTD/svg11.dtd">
<svg version="1.1" id="Layer_1" xmlns="http://www.w3.org/2000/svg" xmlns:xlink="http://www.w3.org/1999/xlink" x="0px" y="0px"
	 width="283.728px" height="128.8px" viewBox="0 0 283.728 128.8" enable-background="new 0 0 283.728 128.8" xml:space="preserve">
<path fill="#000000" d="M72.059,89.047c-16.59,2.015-18.434-42.223-18.434-44.527l-0.059-0.231l0.118-0.055l5.933-3.113l0.805-0.402
	c0,0,0,0.519,0,0.578c0.289,10.652,6.047,30.41,11.867,29.086c12.672-2.879,10.828-41.071,10.481-46.137
	c0-0.059-0.055-0.059-0.055-0.117l0.344-0.402l4.148-5.301l0.113,0.578l0.118,0.633C90.316,35.418,90.895,86.801,72.059,89.047z"/>
<path fill="#FF0000" d="M83.98,4.258c15.84,13.304-28.742,36.519-31.39,37.844h-0.059h-0.058l-6.508-2.707l-0.461-0.231l0.519-0.348
	c7.2-4.836,30.067-21.769,17.625-24.593c-15.957-3.688-41.183,12.789-45.675,17.281h-0.231l-6.855-0.402l-0.403-0.059
	c0.114-0.059,0.172-0.172,0.286-0.289C31.336,12.035,72.402-5.477,83.98,4.258z"/>
<path fill="#FFCC00" d="M51.207,44.059v0.289l0.231,7.316v0.172l-0.348-0.059c-3.168-0.922-25.516-10.941-30.586-2.359
	c-4.664,7.891,14.285,24.883,25.172,26.84L42.91,64.566v-0.23l0.348,0.055l10.023,2.941l0.231,0.112l0.054,0.173
	c2.707,13.191,6.743,19.93,6.223,19.816C23.27,82.883-3.742,50.453,1.957,38.012c5.531-12.153,46.426,4.894,49.078,5.992
	L51.207,44.059z"/>
<path fill="#000000" d="M118.539,80.176h-3.398v1.383h1.843v4.664c-0.113,0.117-0.461,0.172-0.976,0.172c-1.731,0-3.457-1.438-3.457-5.875
	c0-4.434,1.957-5.875,3.742-5.875c0.809,0,1.269,0.117,1.672,0.348l0.344-1.441c-0.403-0.231-1.149-0.403-2.016-0.403
	c-2.531,0-5.414,1.899-5.414,7.543c-0.055,2.653,0.633,4.61,1.73,5.763c0.922,1.035,2.129,1.383,3.399,1.383
	c0.863,0,1.898-0.231,2.531-0.521V80.176z"/>
<path fill="#000000" d="M123.438,77.18c-1.961,0.172-3.227,2.246-3.227,5.414c0,2.996,1.094,4.953,3.227,5.183v-1.382
	c-0.864-0.344-1.614-1.266-1.614-3.743h1.614V81.44h-1.614c0.059-1.382,0.574-2.937,1.614-2.996V77.18z M123.438,87.776
	c0.171,0.06,0.343,0.06,0.519,0.06c0.805,0,1.668-0.172,2.246-0.521l-0.23-1.207c-0.407,0.231-0.981,0.403-1.731,0.403
	c-0.285,0-0.515-0.059-0.804-0.117V87.776z M126.605,82.651c0-0.229,0.059-0.519,0.059-0.922c0-2.362-0.867-4.55-2.996-4.55
	c-0.059,0-0.172,0-0.23,0v1.265h0.058c0.805,0,1.555,0.923,1.555,2.996h-1.613v1.211H126.605z"/>
<path fill="#000000" d="M128.391,87.664h1.671v-5.703c0-0.348,0-0.691,0.055-0.922c0.176-1.211,0.922-2.188,1.961-2.188
	c0.113,0,0.231,0,0.344,0.055V77.18c-0.113,0-0.231,0-0.344,0c-0.98,0-1.844,0.804-2.191,1.785l-0.114-1.613h-1.5
	c0.059,0.75,0.118,1.785,0.118,2.652V87.664z"/>
<path fill="#000000" d="M133.691,87.664h1.668v-6.566c0-0.289,0-0.633,0.059-0.864c0.172-1.097,0.863-1.672,1.555-1.672
	c1.211,0,1.382,1.211,1.382,2.306v6.797h1.672v-6.625c0-0.349,0-0.691,0.055-0.922c0.23-0.98,0.863-1.556,1.5-1.556
	c1.266,0,1.438,1.267,1.438,2.649v6.453h1.672v-6.855c0-2.648-1.094-3.629-2.535-3.629c-0.52,0-0.98,0.117-1.383,0.402
	c-0.402,0.229-0.746,0.633-1.035,1.151h-0.058c-0.344-1.093-1.211-1.554-2.188-1.554c-1.039,0-1.844,0.574-2.304,1.441l-0.118-1.27
	h-1.437c0,0.809,0.058,1.441,0.058,2.652V87.664z"/>
<path fill="#000000" d="M149.414,81.328c-1.726,0.344-3.051,1.496-3.051,3.569c0,1.786,1.094,2.938,2.477,2.938c0.172,0,0.402,0,0.574-0.06v-1.207
	c-0.059,0-0.113,0-0.172,0c-0.578,0-1.27-0.461-1.27-1.843c0-1.325,0.691-1.902,1.441-2.191V81.328z M149.414,77.18
	c-1.035,0-1.902,0.343-2.359,0.691l0.344,1.151c0.52-0.347,1.094-0.578,1.727-0.578c0.117,0,0.176,0.06,0.289,0.06V77.18z
	 M152.41,80.867c0-2.306-0.863-3.688-2.938-3.688h-0.059v1.324c1.094,0.117,1.383,1.039,1.383,2.305v0.343
	c-0.52,0-0.98,0.06-1.383,0.177v1.207c0.52-0.172,1.039-0.23,1.383-0.23v2.132c0,0.172,0,0.403-0.059,0.575
	c-0.172,0.98-0.691,1.5-1.324,1.558v1.207c0.633-0.172,1.094-0.573,1.496-1.151h0.059l0.059,1.039h1.496
	c-0.113-0.633-0.113-1.556-0.113-2.306V80.867z"/>
<path fill="#000000" d="M154.77,87.664h1.613v-6.513c0-0.343,0.059-0.687,0.117-0.918c0.172-1.097,0.863-1.672,1.555-1.672
	c1.152,0,1.384,1.211,1.384,2.478v6.625h1.667V80.75c0-2.535-1.094-3.57-2.477-3.57c-1.094,0-1.957,0.574-2.418,1.382l-0.113-1.21
	h-1.441c0.059,0.809,0.113,1.441,0.113,2.652V87.664z"/>
<path fill="#000000" d="M166.867,73.262v9.621c0,3.57,1.441,4.953,3.571,4.953c2.132,0,3.687-1.383,3.687-5.125v-9.449h-1.672v9.679
	c0,2.532-0.746,3.454-1.957,3.454c-1.094,0-1.957-0.863-1.957-3.454v-9.679H166.867z"/>
<path fill="#000000" d="M176.543,87.664h1.672v-6.513c0-0.343,0-0.687,0.059-0.918c0.172-1.097,0.863-1.672,1.555-1.672
	c1.207,0,1.438,1.211,1.438,2.478v6.625h1.613V80.75c0-2.535-1.035-3.57-2.477-3.57c-1.094,0-1.957,0.574-2.359,1.382h-0.059
	l-0.117-1.21h-1.379c0,0.809,0.055,1.441,0.055,2.652V87.664z"/>
<path fill="#000000" d="M185.992,75.738c0.574,0,0.977-0.402,0.977-1.094c0-0.633-0.402-1.036-0.977-1.036c-0.52,0-0.98,0.403-0.98,1.036
	C185.012,75.336,185.414,75.738,185.992,75.738z M186.855,87.664V77.352h-1.672v10.313H186.855z"/>
<path fill="#000000" d="M188.238,77.352l2.707,10.313h1.438l2.766-10.313h-1.672l-1.266,5.82c-0.113,0.746-0.289,1.668-0.402,2.531h-0.059
	c-0.172-0.922-0.344-1.845-0.461-2.531l-1.324-5.82H188.238z"/>
<path fill="#000000" d="M199.066,77.18c-1.961,0.172-3.227,2.246-3.227,5.414c0,2.996,1.094,4.953,3.227,5.183v-1.382
	c-0.863-0.344-1.613-1.266-1.613-3.743h1.613V81.44h-1.613c0.059-1.382,0.574-2.937,1.613-2.996V77.18z M199.066,87.776
	c0.172,0.06,0.344,0.06,0.52,0.06c0.805,0,1.726-0.172,2.301-0.521l-0.285-1.207c-0.406,0.231-0.98,0.403-1.73,0.403
	c-0.285,0-0.516-0.059-0.805-0.117V87.776z M202.234,82.651c0-0.229,0.059-0.519,0.059-0.922c0-2.362-0.867-4.55-2.996-4.55
	c-0.059,0-0.117,0-0.23,0v1.265c0.059,0,0.059,0,0.059,0c0.805,0,1.609,0.923,1.555,2.996h-1.613v1.211H202.234z"/>
<path fill="#000000" d="M204.02,87.664h1.672v-5.703c0-0.348,0-0.691,0.055-0.922c0.176-1.211,0.922-2.188,1.961-2.188c0.172,0,0.231,0,0.344,0.055
	V77.18c-0.112,0-0.172,0-0.344,0c-0.922,0-1.844,0.804-2.191,1.785l-0.113-1.613h-1.441c0,0.75,0.059,1.785,0.059,2.652V87.664z"/>
<path fill="#000000" d="M208.684,87.203c0.406,0.401,1.27,0.633,2.016,0.633c1.73,0,3.112-1.035,3.112-3.109c0-1.441-0.921-2.363-2.132-3.168
	c-1.035-0.691-1.266-1.094-1.266-1.73c0-0.691,0.402-1.384,1.324-1.384c0.52,0,0.98,0.231,1.383,0.521l0.402-1.266
	c-0.402-0.289-1.035-0.52-1.844-0.52c-1.613,0-2.82,1.152-2.82,2.879c0,1.152,0.746,2.074,2.07,2.938
	c1.039,0.69,1.328,1.211,1.328,2.016c0,0.922-0.578,1.5-1.5,1.5c-0.691,0-1.324-0.289-1.668-0.52L208.684,87.203z"/>
<path fill="#000000" d="M216.344,75.738c0.578,0,0.98-0.402,0.98-1.094c0-0.633-0.402-1.036-0.98-1.036c-0.574,0-0.977,0.403-0.977,1.036
	c0,0.691,0.402,1.094,0.922,1.094H216.344z M217.152,87.664V77.352h-1.613v10.313H217.152z"/>
<path fill="#000000" d="M219.801,75.565v1.786h-1.266v1.21h1.266v6.047c0,1.384,0.23,2.134,0.633,2.595c0.406,0.461,0.98,0.633,1.613,0.633
	c0.578,0,0.922-0.06,1.27-0.172l-0.117-1.27c-0.172,0.059-0.402,0.059-0.633,0.059c-0.633,0-1.094-0.345-1.094-1.727v-6.165h1.957
	v-1.21h-1.957v-2.418L219.801,75.565z"/>
<path fill="#000000" d="M224.238,77.352l2.648,9.503c0,0.177,0,0.29,0,0.403c0,0.176,0,0.289-0.117,0.519c-0.172,0.521-0.461,1.212-0.922,1.731
	c-0.457,0.574-0.977,1.035-1.438,1.324l0.574,1.383c0.406-0.176,1.152-0.637,1.902-1.559c1.211-1.555,1.902-4.087,2.535-6.68
	l1.668-6.625h-1.613l-1.207,5.934c-0.172,0.75-0.348,1.555-0.461,2.133h-0.059c-0.113-0.637-0.23-1.328-0.402-2.133l-1.383-5.934
	H224.238z"/>
<path fill="#000000" d="M236.68,75.738c0.574,0,0.977-0.402,0.977-1.094c0-0.633-0.402-1.036-0.977-1.036c-0.52,0-0.98,0.403-0.98,1.036
	C235.699,75.336,236.102,75.738,236.68,75.738z M237.543,87.664V77.352h-1.672v10.313H237.543z"/>
<path fill="#000000" d="M239.848,87.664h1.613v-6.513c0-0.343,0-0.687,0.113-0.918c0.172-1.097,0.805-1.672,1.496-1.672
	c1.211,0,1.441,1.211,1.441,2.478v6.625h1.672V80.75c0-2.535-1.094-3.57-2.535-3.57c-1.094,0-1.902,0.574-2.363,1.382h-0.055
	l-0.059-1.21h-1.441c0,0.809,0.117,1.441,0.117,2.652V87.664z"/>
<path fill="#000000" d="M257.992,86.051c-0.348,0.172-0.867,0.289-1.5,0.289c-1.785,0-3.398-1.383-3.398-5.82c0-4.434,1.845-5.934,3.34-5.934
	c0.75,0,1.098,0.176,1.441,0.348l0.402-1.441c-0.285-0.173-0.922-0.345-1.785-0.345c-2.304,0-5.125,1.845-5.125,7.543
	c0,4.899,2.016,7.146,4.836,7.146c0.867,0,1.613-0.172,2.074-0.402L257.992,86.051z"/>
<path fill="#000000" d="M262.023,81.328c-1.73,0.344-2.996,1.496-2.996,3.569c0,1.786,1.035,2.938,2.418,2.938c0.23,0,0.402,0,0.578-0.06v-1.207
	c-0.059,0-0.117,0-0.176,0c-0.574,0-1.266-0.461-1.266-1.843c0-1.325,0.691-1.902,1.441-2.191V81.328z M262.023,77.18
	c-0.98,0-1.902,0.343-2.363,0.691l0.402,1.151c0.461-0.347,1.039-0.578,1.672-0.578c0.113,0,0.23,0.06,0.289,0.06V77.18z
	 M265.074,80.867c0-2.306-0.922-3.688-2.996-3.688h-0.055v1.324c1.094,0.117,1.383,1.039,1.383,2.305v0.343
	c-0.461,0-0.922,0.06-1.383,0.177v1.207c0.516-0.172,1.094-0.23,1.438-0.23v2.132c0,0.172-0.055,0.403-0.055,0.575
	c-0.176,0.98-0.75,1.5-1.383,1.558v1.207c0.633-0.172,1.152-0.573,1.496-1.151h0.059l0.113,1.039h1.441
	c-0.059-0.633-0.059-1.556-0.059-2.306V80.867z"/>
<path fill="#000000" d="M268.188,75.738c0.574,0,0.977-0.402,0.977-1.094c0-0.633-0.402-1.036-0.977-1.036c-0.578,0-0.98,0.403-0.98,1.036
	c0,0.691,0.402,1.094,0.922,1.094H268.188z M269.051,87.664V77.352h-1.672v10.313H269.051z"/>
<path fill="#000000" d="M271.297,87.664h1.668v-5.703c0-0.348,0-0.691,0.059-0.922c0.172-1.211,0.922-2.188,1.957-2.188c0.117,0,0.23,0,0.348,0.055
	V77.18c-0.117,0-0.23,0-0.348,0c-0.977,0-1.84,0.804-2.188,1.785l-0.113-1.613h-1.5c0.059,0.75,0.117,1.785,0.117,2.652V87.664z"/>
<path fill="#000000" d="M279.246,87.836L279.246,87.836v-1.267c-1.441-0.058-1.73-2.362-1.73-4.034c0-1.613,0.289-4.031,1.73-4.091V77.18
	c-1.73,0.059-3.398,1.613-3.398,5.355C275.848,86.164,277.344,87.836,279.246,87.836z M279.246,87.836
	c1.613,0,3.398-1.324,3.398-5.356c0-3.573-1.441-5.3-3.285-5.3c-0.059,0-0.059,0-0.113,0v1.265c1.496,0,1.785,2.478,1.785,4.091
	c0,1.612-0.289,4.034-1.73,4.034c0,0,0,0-0.055,0V87.836z"/>
<path fill="#000000" d="M161.051,30.641H139.68v6.336h13.421v17.046c-2.191,1.153-6.223,1.961-12.098,1.961c-16.129,0-25.746-9.91-25.746-23.847
	c0-13.711,9.847-23.617,26.496-23.617c6.91,0,11.461,1.21,15.148,2.882l2.016-6.336c-2.707-1.328-8.984-3.054-16.875-3.054
	c-22.926,0-35.254,14.574-35.254,30.414c0,8.695,3.285,16.531,8.641,21.543c6.336,5.988,14.574,8.523,24.882,8.523
	c9.391,0,16.934-2.305,20.739-3.687V30.641z"/>
<path fill="#000000" d="M173.492,2.645v33.41c0,19.582,10.25,26.898,23.383,26.898c14.285,0,24.887-8.008,24.887-27.074V2.645h-7.95v33.582
	c0,13.882-6.511,20.273-16.476,20.273c-9.215,0-15.84-6.219-15.84-20.273V2.645H173.492z"/>
<path fill="#000000" d="M280.973,53.449c-3.742,1.727-9.273,2.821-14.688,2.821c-16.703,0-25.574-10.368-25.574-23.672
	c0-14.746,9.734-24.539,26.148-24.539c5.59,0,10.602,1.269,13.941,2.824l2.016-6.336c-2.305-1.152-7.777-2.996-16.301-2.996
	c-21.371,0-34.273,14.168-34.273,31.16c0,19.238,13.996,30.242,32.371,30.242c8.41,0,14.918-1.785,18.031-3.285L280.973,53.449z"/>
<path fill="#000000" d="M3.629,110.762v1.152l-0.461-0.349l-1.555,1.5L0,111.453l1.613-1.613l1.442,1.496L3.629,110.762z M2.016,116.52
	c-0.172-0.055-0.344-0.055-0.403-0.055c-0.058,0-0.172,0-0.289,0c0.289-1.442,0.864-2.192,1.672-2.192c0.172,0,0.402,0,0.633,0.06
	v2.707c-0.172-0.06-0.348-0.117-0.52-0.23c-0.171,0.171-0.343,0.402-0.515,0.805c-0.231,0.406-0.289,0.637-0.289,0.809
	c0,0.633,0.113,1.094,0.343,1.437c0.231,0.349,0.579,0.521,0.981,0.521v2.016c-0.117,0.059-0.289,0.059-0.402,0.059
	c-0.692,0-1.27-0.23-1.614-0.75c-0.402-0.461-0.633-1.095-0.633-1.845C0.98,118.996,1.324,117.901,2.016,116.52z M3.629,111.914
	v-1.152l1.035-1.039l1.559,1.613l-1.559,1.613L3.629,111.914z M3.629,114.332c0.633,0.112,1.152,0.52,1.672,1.151
	c0.633,0.806,0.976,1.668,0.976,2.591c0,1.27-0.285,2.305-0.804,3.112c-0.461,0.747-1.094,1.153-1.844,1.208v-2.016
	c0.344,0,0.574-0.06,0.863-0.289c0.289-0.172,0.403-0.457,0.403-0.805c0-0.634-0.114-1.095-0.344-1.496
	c-0.172-0.289-0.52-0.52-0.922-0.75V114.332z"/>
<path fill="#000000" d="M21.656,120.09v2.363h-0.922c-0.461,0-0.863-0.113-1.265-0.345c-0.344-0.175-0.574-0.461-0.692-0.808
	c-0.23,1.554-0.75,2.879-1.554,3.918c-0.809,1.035-1.844,1.554-2.996,1.554c-0.575,0-1.383-0.229-2.536-0.69
	c-1.152-0.461-1.726-0.863-1.726-1.152c0-0.23,0.172-0.344,0.519-0.344c0.055,0,0.286,0.055,0.746,0.113
	c0.407,0.116,0.868,0.172,1.383,0.172c1.153,0,2.305-0.517,3.457-1.496c1.211-0.98,1.785-1.785,1.785-2.535
	c0-1.324-0.574-2.59-1.726-3.801l1.437-2.767c0.348,0.579,0.637,1.271,0.868,1.903c0.23,0.691,0.343,1.383,0.461,2.129
	c0.054,0.75,0.23,1.211,0.46,1.441c0.231,0.23,0.688,0.344,1.379,0.344H21.656z"/>
<path fill="#000000" d="M27.359,121.531c-0.863,0.577-1.843,0.922-3.109,0.922h-2.594v-2.363c1.672,0,2.824-0.055,3.457-0.231
	c0-0.976,0.461-2.015,1.383-3.168c-0.344-0.171-0.691-0.226-0.98-0.226c0.058-0.348,0.175-0.692,0.347-1.039
	c0.172-0.403,0.344-0.692,0.575-0.75c0.23-0.114,0.519-0.172,0.863-0.172c0,0,0,0,0.058,0v2.824c-0.113,0.112-0.23,0.23-0.343,0.401
	c-0.407,0.521-0.637,0.864-0.637,1.036c0,0.23,0.117,0.348,0.23,0.406c0.176,0.055,0.407,0.113,0.579,0.172
	c0.058-0.059,0.113-0.117,0.171-0.172V121.531z M29.262,122.223c-0.52-0.289-1.039-0.575-1.672-0.864
	c-0.113,0.06-0.172,0.114-0.231,0.173v-2.359c0.579-0.692,0.922-1.271,0.922-1.731c0-0.171-0.058-0.289-0.058-0.343
	c-0.055-0.059-0.172-0.118-0.344-0.118c-0.117,0-0.289,0.118-0.52,0.349v-2.824c0.692,0,1.325,0.229,1.903,0.69v2.595
	c-0.059-0.06-0.117-0.117-0.172-0.176c0,0.809-0.231,1.559-0.692,2.191c0.286,0.113,0.575,0.172,0.864,0.285V122.223z
	 M30.008,122.625c-0.231-0.172-0.516-0.285-0.746-0.402v-2.133c0.23,0.117,0.461,0.176,0.746,0.289c0-0.113,0.058-0.344,0.058-0.692
	c0-0.69-0.289-1.323-0.804-1.897v-2.595c0.343,0.231,0.633,0.578,0.922,0.981c0.804,1.094,1.207,2.246,1.207,3.398
	C31.391,120.319,30.93,121.301,30.008,122.625z"/>
<path fill="#000000" d="M47.059,122.453h-4.434c-0.922,0-1.613-0.113-2.016-0.289c-0.461-0.113-0.75-0.517-0.98-1.152
	c-0.172-0.633-0.289-1.496-0.289-2.59c0-0.461,0-1.094,0.058-1.844c0.059-0.806,0.059-1.267,0.059-1.496
	c0-1.5-0.117-2.767-0.348-3.859l1.614-2.075c0.402,1.438,0.632,2.997,0.632,4.664c0,0.521-0.054,1.271-0.054,2.364
	c-0.059,1.035-0.117,1.898-0.117,2.535c0,0.574,0.058,0.922,0.117,1.094c0.113,0.23,0.285,0.285,0.574,0.285h5.184V122.453z"/>
<path fill="#000000" d="M56.793,110.242v1.323l-0.52-0.461l-1.609,1.5l-1.559-1.558l1.614-1.61l1.441,1.438L56.793,110.242z M56.793,121.59
	c-0.981,0.574-2.359,0.863-4.148,0.863h-5.586v-2.363h3.629c2.417,0,3.976-0.055,4.722-0.231c-0.746-0.862-1.094-1.608-1.094-2.187
	c0-0.633,0.403-1.383,1.094-2.246c0.461-0.574,0.922-0.981,1.383-1.211v1.789c-0.231,0-0.461,0.113-0.633,0.344
	c-0.172,0.23-0.289,0.52-0.289,0.75c0,0.461,0.289,1.035,0.922,1.668V121.59z M56.793,111.565v-1.323l0.922-0.98l1.613,1.613
	l-1.613,1.613L56.793,111.565z M59.73,122.453c-0.632,0-1.207-0.059-1.613-0.172c-0.344-0.173-0.746-0.402-1.094-0.809
	c-0.058,0.059-0.171,0.117-0.23,0.117v-2.824c0.059,0.117,0.172,0.23,0.289,0.289c0.289-0.403,0.461-0.75,0.52-1.035
	c0.054-0.23,0.113-0.637,0.113-1.098c0-0.231-0.113-0.457-0.289-0.633c-0.172-0.172-0.344-0.285-0.574-0.285
	c-0.059,0-0.059,0-0.059,0v-1.789c0.23-0.113,0.461-0.172,0.633-0.172c0.519,0,0.867,0.289,1.211,0.809
	c0.343,0.516,0.519,1.035,0.519,1.613c0,1.437-0.23,2.59-0.75,3.394c0.117,0.177,0.574,0.231,1.324,0.231V122.453z"/>
<path fill="#000000" d="M72.172,111.047l-0.805,1.328c0.461,3.453,0.692,6.047,0.692,7.715c0,1.269-1.039,2.074-3.114,2.363H59.73v-2.363h9.907
	c0.519,0,0.75-0.172,0.75-0.574c0-1.555-0.114-3.109-0.344-4.782c-0.231-1.668-0.52-2.879-0.922-3.629
	c0.402-0.69,0.922-1.496,1.613-2.304C71.195,109.84,71.656,110.586,72.172,111.047z"/>
<path fill="#000000" d="M85.191,122.453h-4.437c-0.977,0-1.668-0.113-2.074-0.289c-0.403-0.113-0.688-0.517-0.918-1.152
	c-0.231-0.633-0.289-1.496-0.289-2.59c0-0.461,0-1.094,0.058-1.844c0-0.806,0.055-1.267,0.055-1.496c0-1.5-0.113-2.767-0.402-3.859
	l1.671-2.075c0.403,1.438,0.575,2.997,0.575,4.664c0,0.521,0,1.271-0.059,2.364c-0.055,1.035-0.055,1.898-0.055,2.535
	c0,0.574,0.055,0.922,0.114,1.094c0.058,0.23,0.23,0.285,0.519,0.285h5.242V122.453z"/>
<path fill="#000000" d="M96.652,125.562l-1.554,1.614l-1.614-1.614l1.614-1.554L96.652,125.562z M85.191,122.453v-2.363h8.871
	c0.231,0,0.461,0,0.805-0.113c0.344-0.118,0.52-0.23,0.52-0.344c0-1.098-0.407-2.074-1.211-2.942l1.211-2.991
	c0.746,1.094,1.207,1.957,1.437,2.648c0.289,0.632,0.406,1.382,0.406,2.188c0,0.75-0.289,1.612-0.808,2.534
	c-0.574,0.923-1.211,1.384-1.899,1.384H85.191z"/>
<path fill="#000000" d="M117.102,107.937v2.879l-1.442-1.437L117.102,107.937z M117.102,120.319c-0.75,0-1.27-0.054-1.555-0.112
	c-0.406-0.06-0.75-0.117-1.152-0.23c-0.348-0.118-0.52-0.29-0.52-0.402c-0.059-0.117-0.059-0.173-0.059-0.289
	c0-0.806,0.231-1.441,0.75-1.902c0.403-0.403,1.211-0.805,2.536-1.266v1.784c-0.864,0.349-1.325,0.578-1.325,0.864
	c0,0.059,0,0.117,0.055,0.117c0,0.058,0.23,0.058,0.578,0.113c0.231,0.059,0.461,0.059,0.692,0.117V120.319z M117.102,110.815
	v-2.879l0.171-0.171l1.442,1.496l1.555-1.614l1.613,1.614l-1.613,1.613l-1.442-1.438l-1.555,1.556L117.102,110.815z
	 M123.266,122.453h-2.825c-0.691,0-1.211-0.172-1.554-0.574c-0.348-0.348-0.52-0.981-0.578-1.844l-0.461,0.284
	c-0.286,0-0.516,0-0.746,0v-1.206c0.23,0,0.46,0,0.746,0c0.23-0.059,0.406-0.117,0.578-0.173l-0.117-1.44
	c-0.461,0.172-0.864,0.289-1.207,0.401v-1.784c0.289-0.059,0.574-0.173,0.921-0.289c-0.058-0.691-0.175-1.267-0.402-1.727
	l1.785-2.363c0.114,0.75,0.231,2.133,0.344,4.09c0.117,2.016,0.172,3.227,0.172,3.746c0,0.344,0.176,0.516,0.519,0.516h2.825
	V122.453z"/>
<path fill="#000000" d="M134.555,126.944l-1.614,1.614l-1.441-1.383l-1.613,1.5l-1.555-1.614l1.613-1.554l1.442,1.437l1.554-1.612L134.555,126.944z
	 M135.992,122.453h-0.863c-1.266,0-2.129-0.172-2.649-0.402c-0.46-0.289-0.863-0.809-1.269-1.614
	c-0.805,1.325-1.555,2.017-2.301,2.017h-5.644v-2.363h5.527c0.809,0,1.211-0.344,1.211-1.035s-0.231-1.555-0.692-2.648l1.614-2.766
	c0.574,1.843,0.922,3.398,1.035,4.664c0.059,0.406,0.117,0.75,0.23,0.922c0.059,0.175,0.231,0.289,0.348,0.406
	c0.172,0.113,0.344,0.226,0.574,0.344c0.231,0.059,0.403,0.113,0.578,0.113c0.172,0,0.918,0,2.301,0V122.453z"/>
<path fill="#000000" d="M147.227,110.354l-1.613,1.56l-1.555-1.56l1.555-1.608L147.227,110.354z M135.992,122.453v-2.363h8.871
	c0.23,0,0.52,0,0.809-0.113c0.344-0.118,0.517-0.23,0.517-0.344c0-1.098-0.403-2.074-1.153-2.942l1.211-2.991
	c0.692,1.094,1.152,1.957,1.442,2.648c0.229,0.632,0.343,1.382,0.343,2.188c0,0.75-0.289,1.612-0.805,2.534
	c-0.52,0.923-1.152,1.384-1.902,1.384H135.992z"/>
<path fill="#000000" d="M161.395,122.453h-4.375c-0.98,0-1.672-0.113-2.074-0.289c-0.461-0.113-0.75-0.517-0.922-1.152
	c-0.23-0.633-0.348-1.496-0.348-2.59c0-0.461,0.059-1.094,0.059-1.844c0.059-0.806,0.059-1.267,0.059-1.496
	c0-1.5-0.117-2.767-0.348-3.859l1.613-2.075c0.402,1.438,0.633,2.997,0.633,4.664c0,0.521,0,1.271-0.055,2.364
	c-0.059,1.035-0.117,1.898-0.117,2.535c0,0.574,0.059,0.922,0.117,1.094c0.113,0.23,0.285,0.285,0.574,0.285h5.184V122.453z"/>
<path fill="#000000" d="M172.684,123.604c-0.745-1.21-1.727-1.785-2.938-1.785c-0.516,0-1.324,0.173-2.418,0.462
	c-0.402,0.113-0.75,0.172-1.035,0.172h-4.898v-2.363h4.551c1.555,0,2.707-0.231,3.516-0.805c0-0.863-0.176-2.246-0.637-4.203
	c-0.402-2.017-0.805-3.285-1.152-3.918c0.406-0.633,0.867-1.324,1.5-2.188c0.574,0.977,1.094,1.668,1.555,2.188l-0.691,1.211
	l0.117,1.207c0.172,1.44,0.286,2.594,0.457,3.516c0.117,0.863,0.23,1.438,0.348,1.727c0.113,0.289,0.344,0.52,0.691,0.633
	c0.574,0.289,1.152,0.633,1.672,1.039c0.457,0.461,0.746,0.805,0.746,1.094s-0.172,0.633-0.402,1.035
	C173.375,123.031,173.031,123.375,172.684,123.604z"/>
<path fill="#000000" d="M177.062,105.633v1.097c-0.229-0.058-0.401-0.116-0.573-0.116c-0.23,0-0.348,0.059-0.348,0.288
	c0,0.231,0.171,0.462,0.461,0.634c0.117,0.112,0.289,0.172,0.46,0.23v1.613l-1.554,0.633l0.113-0.75
	c0.348-0.23,0.637-0.461,0.75-0.633c-0.633-0.231-0.98-0.574-0.98-1.035s0.176-0.922,0.461-1.324
	c0.348-0.461,0.691-0.637,1.094-0.637C177.004,105.633,177.004,105.633,177.062,105.633z M177.062,115.082l-1.843-1.328l0.461-2.82
	c0.52,0.23,0.922,0.461,1.382,0.75V115.082z M177.062,106.729v-1.097c0.634,0,0.923,0.289,0.923,0.922
	c0,0.175-0.059,0.347-0.173,0.632C177.523,107.016,177.293,106.844,177.062,106.729z M177.062,109.379v-1.613
	c0.114,0.059,0.29,0.059,0.403,0.059c0.347,0,0.75-0.117,1.211-0.348v1.21L177.062,109.379z M181.727,111.047
	c-0.055-0.055-0.055-0.172-0.055-0.231c0,0,0,0,0.055,0V111.047z M181.727,122.453h-3.34l0.578-2.306
	c0.922-0.229,1.727-0.921,2.477-2.073c-0.75-1.266-1.902-2.418-3.516-3.453l-0.23,0.977l-0.634-0.516v-3.398
	c2.188,1.266,3.743,2.707,4.665,4.261v3.742c-0.285,0.349-0.633,0.692-0.922,0.981h0.922V122.453z M184.551,110.703
	c-0.52,0.805-0.809,1.957-0.922,3.457c-0.172,1.727-0.348,2.938-0.69,3.684c0.519,0.867,0.804,1.441,0.804,1.843
	c0,0.461-0.172,1.04-0.461,1.731c-0.285,0.69-0.574,1.035-0.918,1.035h-0.637v-1.785h0.462c0.116,0,0.175-0.117,0.288-0.231
	c0.117-0.117,0.172-0.229,0.172-0.347c0-0.172-0.113-0.403-0.344-0.746c-0.059-0.059-0.116-0.172-0.172-0.289
	c-0.176,0.23-0.289,0.402-0.406,0.632v-3.742c0.117,0.289,0.289,0.521,0.406,0.806c0-0.978-0.059-1.844-0.059-2.535
	c-0.059-0.692-0.172-1.785-0.348-3.168v-0.231c0.348-0.401,0.691-1.034,1.039-1.897C183.34,109.723,183.973,110.301,184.551,110.703
	z"/>
<path fill="#000000" d="M191.75,111.395l2.074-2.363c0,1.038-0.059,2.245-0.059,3.629c0,0.637,0.059,1.612,0.117,2.938
	c0.056,1.382,0.113,2.363,0.113,2.996c0,0.98-0.172,1.957-0.574,2.879c-0.348,0.922-0.691,1.382-1.094,1.382
	c0,0-0.059-0.054-0.059-0.171c-0.059-0.114-0.059-0.633-0.059-1.555c0-0.981-0.059-2.535-0.23-4.84
	C191.867,114.102,191.75,112.43,191.75,111.395z"/>
<path fill="#000000" d="M218.766,107.937v2.879l-1.5-1.437L218.766,107.937z M218.766,120.319c-0.75,0-1.27-0.054-1.555-0.112
	c-0.406-0.06-0.809-0.117-1.152-0.23c-0.348-0.118-0.578-0.29-0.578-0.402c0-0.117,0-0.173,0-0.289c0-0.806,0.23-1.441,0.691-1.902
	c0.402-0.403,1.27-0.805,2.594-1.266v1.784c-0.922,0.349-1.324,0.578-1.324,0.864c0,0.059,0,0.117,0,0.117
	c0.055,0.058,0.23,0.058,0.633,0.113c0.172,0.059,0.402,0.059,0.691,0.117V120.319z M218.766,110.815v-2.879l0.113-0.171
	l1.441,1.496l1.613-1.614l1.613,1.614l-1.613,1.613l-1.441-1.438l-1.613,1.556L218.766,110.815z M224.93,122.453h-2.883
	c-0.691,0-1.152-0.172-1.496-0.574c-0.348-0.348-0.578-0.981-0.633-1.844l-0.406,0.284c-0.285,0-0.516,0-0.746,0v-1.206
	c0.23,0,0.461,0,0.746,0c0.177-0.059,0.406-0.117,0.52-0.173l-0.059-1.44c-0.461,0.172-0.918,0.289-1.207,0.401v-1.784
	c0.289-0.059,0.574-0.173,0.923-0.289c-0.06-0.691-0.177-1.267-0.407-1.727l1.789-2.363c0.055,0.75,0.172,2.133,0.344,4.09
	c0.117,2.016,0.172,3.227,0.172,3.746c0,0.344,0.176,0.516,0.461,0.516h2.883V122.453z"/>
<path fill="#000000" d="M232.531,119.977c-0.059-0.118-0.059-0.23-0.117-0.29c-0.344,0.172-0.805,0.461-1.266,0.922
	c-1.21,1.211-2.418,1.845-3.512,1.845h-2.707v-2.363h2.82c0.289,0,0.691-0.055,1.039-0.113c0.344-0.118,1.266-0.633,2.707-1.555
	c-0.52-0.461-1.27-0.75-2.191-0.809l0.863-2.246c0.98-0.285,1.73-0.461,2.363-0.461v1.27c-0.461,0.058-0.98,0.172-1.496,0.344
	c0.516,0.289,1.035,0.632,1.496,1.039V119.977z M237.602,122.453h-1.79c-1.437,0-2.53-0.863-3.28-2.477v-2.418
	c0.113,0.055,0.172,0.171,0.289,0.23c0.23-0.06,0.516-0.176,0.805-0.406c0.289-0.231,0.461-0.403,0.461-0.516
	c0-0.461-0.461-0.691-1.383-0.691c-0.059,0-0.113,0-0.172,0v-1.27c0.059,0,0.113,0,0.23,0c1.957,0,2.938,0.637,2.938,1.961
	c0,0.805-0.691,1.555-2.074,2.246c0.289,0.402,0.75,0.633,1.27,0.805c0.516,0.117,1.438,0.172,2.707,0.172V122.453z"/>
<path fill="#000000" d="M246.699,122.569c-0.574-0.636-1.207-1.151-1.84-1.5c-0.691,0.578-1.27,0.981-1.671,1.095
	c-0.462,0.176-0.981,0.289-1.497,0.289h-4.09v-2.363h1.266c0.805,0,1.496,0,2.074,0c0.633-0.055,1.152-0.055,1.613-0.113
	c0.402-0.059,0.805-0.118,1.035-0.172c0.289-0.059,0.461-0.118,0.52-0.172c0.113-0.117,0.23-0.348,0.402-0.867
	c0.578-1.727,1.035-2.821,1.441-3.282c0.285-0.401,0.633-0.632,0.977-0.69v2.477c-0.113,0.113-0.23,0.289-0.344,0.52
	c-0.289,0.461-0.461,0.922-0.633,1.438c0.344,0.175,0.691,0.348,0.977,0.578v2.707C246.875,122.569,246.758,122.569,246.699,122.569
	z M246.93,114.793c0.117-0.06,0.176-0.06,0.289-0.06c0.75,0,1.27,0.349,1.672,0.981s0.574,1.437,0.574,2.418
	c0,1.039-0.23,2.015-0.691,2.937c-0.462,0.81-1.094,1.325-1.844,1.442v-2.707c0.23,0.172,0.406,0.402,0.578,0.632
	c0.289-0.519,0.402-1.093,0.402-1.612c0-0.345-0.113-0.75-0.23-1.152c-0.172-0.344-0.344-0.574-0.574-0.574
	c-0.059,0-0.117,0.054-0.176,0.172V114.793z"/>
<path fill="#000000" d="M263.059,122.453h-4.434c-0.98,0-1.672-0.113-2.074-0.289c-0.402-0.113-0.691-0.517-0.922-1.152
	c-0.172-0.633-0.289-1.496-0.289-2.59c0-0.461,0-1.094,0.059-1.844c0.059-0.806,0.059-1.267,0.059-1.496
	c0-1.5-0.117-2.767-0.402-3.859l1.668-2.075c0.402,1.438,0.633,2.997,0.633,4.664c0,0.521-0.055,1.271-0.113,2.364
	c-0.059,1.035-0.059,1.898-0.059,2.535c0,0.574,0.059,0.922,0.117,1.094c0.055,0.23,0.23,0.285,0.516,0.285h5.242V122.453z"/>
<path fill="#000000" d="M273.371,125.91l-1.559,1.612l-1.609-1.612l1.609-1.556L273.371,125.91z M275.73,117.672l-0.691,2.187
	c-0.746-0.054-1.438-0.054-2.074-0.054c-0.922,0-2.07,0.402-3.398,1.152c-0.977,0.574-1.668,0.977-2.246,1.151
	c-0.516,0.231-1.152,0.345-2.016,0.345h-2.246v-2.363h3.398c0.52,0,1.324-0.231,2.418-0.805c0.578-0.289,1.27-0.574,2.074-0.922
	c-0.633-0.289-1.785-0.402-3.512-0.402c-0.52,0-1.094,0.059-1.672,0.059c0.348-0.868,0.75-1.555,1.152-2.133
	c0.289-0.059,0.633-0.059,1.152-0.059c0.863,0,1.441-0.056,1.613-0.23c0.23-0.114,0.344-0.286,0.344-0.516
	c0-0.521-0.172-1.211-0.461-2.191c-0.285-0.977-0.574-1.668-0.863-2.075c0.172-0.171,0.461-0.515,0.809-0.976
	c0.285-0.403,0.574-0.75,0.863-0.981c0.461,0.81,0.98,1.496,1.438,2.075l-0.688,1.211c0,0.285,0.113,0.805,0.23,1.609
	c0.113,0.637,0.172,1.152,0.172,1.558c0,0.286-0.117,0.575-0.289,0.978C273.082,117.151,274.637,117.613,275.73,117.672z"/>
<path fill="#000000" d="M280.684,111.395l2.074-2.363c0,1.038-0.059,2.245-0.059,3.629c0,0.637,0.059,1.612,0.117,2.938
	c0.059,1.382,0.113,2.363,0.113,2.996c0,0.98-0.172,1.957-0.574,2.879c-0.348,0.922-0.691,1.382-1.094,1.382
	c0,0-0.059-0.054-0.059-0.171c-0.059-0.114-0.059-0.633-0.059-1.555c0-0.981-0.055-2.535-0.23-4.84
	C280.801,114.102,280.684,112.43,280.684,111.395z"/>
</svg>
